# xmcd
#
# Track frame offsets: 
#        185
#        21210
#        36475
#        52697
#        71500
#        86195
#        102340
#        118702
#        138557
#        164515
#        184642
#        206825
#        220152
#        236047
#        253007
#        273035
#        296600
#
# Disc length: 4207 seconds
#
# Revision: 1
# Processed by: cddbd v1.5.2PL0 Copyright (c) Steve Scherf et al.
# Submitted via: ExactAudioCopy v0.95a3
#
DISCID=01106d11
DTITLE=Various Artist - Давайте, Люся, Потанцуем. Лучшие Песни Ларисы Рубальс
DTITLE=кой
DYEAR=1994
DGENRE=Pop
TTITLE0=На-На - Эскимос И Папуас
TTITLE1=Пламя - На Два Дня
TTITLE2=Весёлые Ребята - Безнадёга
TTITLE3=Ирина Аллегрова - Транзитный Пассажир
TTITLE4=Весёлые Ребята - Люби Меня, Как Я Тебя
TTITLE5=Екатерина Семёнова - Пони
TTITLE6=Ирина Аллегрова - Ключи
TTITLE7=Пламя - Переведи Часы Назад
TTITLE8=Нескучный Сад - Давайте, Люся, Потанцуем
TTITLE9=Хасан Жулеев - Тайна Тропической Ночи
TTITLE10=Валерий Леонтьев - Кикимора Болотная
TTITLE11=Александр Буйнов - Сапёр
TTITLE12=Нескучный Сад - Вика-Виктория
TTITLE13=Алёна Апина - Ну Когда Под Венец
TTITLE14=Виталий Соломин - Золотые Шары
TTITLE15=Мила Романиди - Блондин
TTITLE16=Нескучный Сад - Трактир На Пятницкой
EXTD=
EXTT0=
EXTT1=
EXTT2=
EXTT3=
EXTT4=
EXTT5=
EXTT6=
EXTT7=
EXTT8=
EXTT9=
EXTT10=
EXTT11=
EXTT12=
EXTT13=
EXTT14=
EXTT15=
EXTT16=
PLAYORDER=
